<svg width="220" height="52" viewBox="0 0 220 52" fill="none" xmlns="http://www.w3.org/2000/svg">
<path d="M-4.39537e-05 20.8487C-4.37144e-05 18.1108 0.539223 15.3997 1.58697 12.8702C2.63471 10.3408 4.17041 8.04242 6.10639 6.10644C8.04236 4.17047 10.3407 2.63476 12.8702 1.58702C15.3997 0.539279 18.1107 1.30771e-05 20.8486 1.34361e-05C23.5865 1.37952e-05 26.2976 0.539281 28.827 1.58702C31.3565 2.63477 33.6549 4.17047 35.5908 6.10645C37.5268 8.04242 39.0625 10.3408 40.1103 12.8702C41.158 15.3997 41.6973 18.1108 41.6973 20.8487L31.5805 20.8487C31.5805 19.4393 31.3029 18.0438 30.7636 16.7418C30.2243 15.4397 29.4337 14.2566 28.4372 13.2601C27.4407 12.2635 26.2576 11.473 24.9555 10.9337C23.6535 10.3944 22.2579 10.1168 20.8486 10.1168C19.4393 10.1168 18.0438 10.3944 16.7417 10.9337C15.4396 11.473 14.2566 12.2635 13.26 13.2601C12.2635 14.2566 11.473 15.4397 10.9336 16.7418C10.3943 18.0438 10.1167 19.4393 10.1167 20.8487L-4.39537e-05 20.8487Z" fill="#F5F5F5"/>
<rect y="20.8487" width="10.1132" height="30.1839" fill="#F5F5F5"/>
<rect x="31.5841" y="20.8487" width="10.1132" height="30.1839" fill="#F5F5F5"/>
<path d="M177.525 8.2461C180.161 8.2461 182.77 8.76927 185.206 9.78574C187.641 10.8022 189.853 12.2921 191.717 14.1703C193.581 16.0484 195.059 18.2782 196.068 20.7321C197.076 23.1861 197.596 25.8163 197.595 28.4724L177.525 28.4724L177.525 8.2461Z" fill="#F5F5F5"/>
<path d="M197.596 30.9618C197.596 33.5975 197.072 36.2074 196.056 38.6425C195.039 41.0776 193.55 43.2902 191.671 45.1539C189.793 47.0177 187.564 48.4961 185.11 49.5047C182.656 50.5134 180.025 51.0325 177.369 51.0325L177.369 30.9618H197.596Z" fill="#F5F5F5"/>
<path d="M174.491 8.24605C168.817 8.24605 163.376 10.5 159.364 14.512C155.352 18.524 153.098 23.9654 153.098 29.6393C153.098 35.3131 155.352 40.7545 159.364 44.7665C163.376 48.7785 168.817 51.0325 174.491 51.0325L174.491 29.6393L174.491 8.24605Z" fill="#F5F5F5"/>
<path d="M75.5375 8.24611C87.3526 8.24611 96.9307 17.8242 96.9307 29.6393C96.9307 41.4545 87.3526 51.0325 75.5375 51.0325C63.7224 51.0325 54.1443 41.4545 54.1443 29.6393C54.1443 17.8242 63.7224 8.24611 75.5375 8.24611ZM75.5375 40.9216C81.7685 40.9216 86.8197 35.8703 86.8197 29.6393C86.8197 23.4083 81.7685 18.3571 75.5375 18.3571C69.3065 18.3571 64.2552 23.4083 64.2552 29.6393C64.2552 35.8703 69.3065 40.9216 75.5375 40.9216Z" fill="#F5F5F5"/>
<rect x="129.293" y="29.7171" width="10.1132" height="29.7171" transform="rotate(-180 129.293 29.7171)" fill="#F5F5F5"/>
<rect x="109.378" y="18.3593" width="10.1132" height="29.7171" transform="rotate(-90 109.378 18.3593)" fill="#F5F5F5"/>
<path d="M140.573 51.0325C137.763 51.0325 134.982 50.4792 132.386 49.4041C129.79 48.3289 127.432 46.7531 125.446 44.7666C123.459 42.78 121.883 40.4217 120.808 37.8261C119.733 35.2306 119.18 32.4487 119.18 29.6393L129.291 29.6393C129.291 31.1209 129.582 32.588 130.149 33.9568C130.716 35.3257 131.547 36.5694 132.595 37.6171C133.643 38.6647 134.886 39.4958 136.255 40.0627C137.624 40.6297 139.091 40.9216 140.573 40.9216L140.573 51.0325Z" fill="#F5F5F5"/>
<circle cx="215.021" cy="46.0537" r="4.97878" fill="#F5F5F5"/>
</svg>
